<svg width="626" height="634" viewBox="0 0 626 634" fill="none" xmlns="http://www.w3.org/2000/svg">
<circle cx="313" cy="313" r="303" stroke="black" stroke-width="20"/>
<mask id="path-2-inside-1_28_4" fill="white">
<path d="M517.305 501.404C553.343 461.655 577.048 412.254 585.526 359.232C594.004 306.21 586.887 251.863 565.045 202.826C543.202 153.789 507.58 112.185 462.527 83.0934C417.474 54.002 364.941 38.6823 311.341 39.005C257.742 39.3277 205.396 55.2788 160.695 84.9107C115.995 114.542 80.8742 156.573 59.6219 205.869C38.3696 255.165 31.9053 309.594 41.0183 362.51C50.1314 415.426 74.4275 464.538 110.94 503.85L116.847 498.344C81.4018 460.181 57.8159 412.505 48.9693 361.136C40.1226 309.767 46.3979 256.929 67.029 209.074C87.66 161.219 121.754 120.417 165.148 91.6515C208.542 62.886 259.357 47.4011 311.39 47.0879C363.422 46.7746 414.42 61.6464 458.156 89.8874C501.892 118.128 536.473 158.516 557.676 206.12C578.88 253.723 585.789 306.482 577.559 357.953C569.329 409.425 546.317 457.382 511.333 495.969L517.305 501.404Z"/>
</mask>
<path d="M517.305 501.404C553.343 461.655 577.048 412.254 585.526 359.232C594.004 306.21 586.887 251.863 565.045 202.826C543.202 153.789 507.58 112.185 462.527 83.0934C417.474 54.002 364.941 38.6823 311.341 39.005C257.742 39.3277 205.396 55.2788 160.695 84.9107C115.995 114.542 80.8742 156.573 59.6219 205.869C38.3696 255.165 31.9053 309.594 41.0183 362.51C50.1314 415.426 74.4275 464.538 110.94 503.85L116.847 498.344C81.4018 460.181 57.8159 412.505 48.9693 361.136C40.1226 309.767 46.3979 256.929 67.029 209.074C87.66 161.219 121.754 120.417 165.148 91.6515C208.542 62.886 259.357 47.4011 311.39 47.0879C363.422 46.7746 414.42 61.6464 458.156 89.8874C501.892 118.128 536.473 158.516 557.676 206.12C578.88 253.723 585.789 306.482 577.559 357.953C569.329 409.425 546.317 457.382 511.333 495.969L517.305 501.404Z" stroke="black" stroke-width="20" mask="url(#path-2-inside-1_28_4)"/>
<path d="M470.004 118.563L246.182 345.818L232.835 352.165L224.98 363.02L182.008 398.853L174.5 397L180.482 383.018L211.999 352.5L226.335 345.665L233.689 334.311L456.489 104.578L474.363 100.685L470.004 118.563Z" fill="black"/>
<path d="M166.859 107.826L393.932 331.465L400.757 345.952L412.285 354.785L447 391.5L445.253 399L431.09 397.123L400.597 365.631L395.95 350.95L382.424 343.957L152.874 121.341L148.99 103.476L166.859 107.826Z" fill="black"/>
<path d="M194.749 377.861C199.015 381.885 200.739 388.06 199.653 395.422C198.568 402.783 194.732 410.918 188.746 418.558C182.76 426.198 174.959 432.913 166.561 437.655C158.162 442.397 149.638 444.901 142.318 444.775C134.997 444.649 129.292 441.901 126.092 436.96C122.892 432.018 122.378 425.16 124.628 417.456C126.879 409.753 131.768 401.636 138.534 394.371C145.299 387.107 153.561 381.104 162.03 377.299L161.772 396.675C158.506 398.142 155.32 400.457 152.71 403.259C150.101 406.06 148.216 409.191 147.348 412.162C146.48 415.133 146.678 417.777 147.912 419.683C149.146 421.589 151.346 422.649 154.17 422.697C156.993 422.746 160.28 421.78 163.519 419.951C166.758 418.122 169.766 415.533 172.075 412.587C174.383 409.64 175.862 406.503 176.281 403.664C176.7 400.825 176.035 398.444 174.39 396.892L194.749 377.861Z" fill="black"/>
<path d="M461.663 369.738C469.036 374.385 476.007 381.289 481.549 389.434C487.09 397.578 490.909 406.53 492.442 414.971C493.974 423.412 493.14 430.895 490.061 436.315C486.982 441.735 481.822 444.807 475.342 445.077C468.862 445.346 461.404 442.8 454.069 437.813C446.735 432.826 439.91 425.662 434.603 417.378C429.296 409.094 425.788 400.129 424.594 391.804C423.401 383.479 424.586 376.235 427.975 371.14L446.997 391.691C445.708 393.629 445.257 396.383 445.711 399.548C446.165 402.714 447.499 406.123 449.517 409.273C451.535 412.422 454.129 415.146 456.918 417.042C459.707 418.939 462.543 419.907 465.007 419.804C467.471 419.702 469.433 418.534 470.604 416.473C471.774 414.412 472.092 411.567 471.509 408.357C470.926 405.148 469.474 401.744 467.367 398.647C465.26 395.55 462.609 392.925 459.806 391.158L461.663 369.738Z" fill="black"/>
<path d="M169.197 172.215C168.82 170.567 169.301 168.839 170.477 167.623L213.013 123.629C215.065 121.507 218.498 121.614 220.413 123.86L225.597 129.941C226.188 130.634 226.957 131.152 227.821 131.44L246.05 137.517C246.995 137.832 247.825 138.422 248.432 139.212L254.85 147.555C256.37 149.531 256.202 152.324 254.458 154.104L203.092 206.506C200.871 208.773 197.127 208.422 195.364 205.783L191.308 199.71C190.78 198.92 190.038 198.296 189.168 197.913L175.795 192.013C174.351 191.375 173.292 190.093 172.94 188.554L169.197 172.215Z" fill="#E31E25"/>
<path d="M300.606 202.809C303.002 204.601 303.299 208.082 301.24 210.253L260.237 253.507C258.54 255.297 255.792 255.582 253.763 254.179L242.186 246.167C241.106 245.419 240.363 244.276 240.119 242.985L237.619 229.772C237.244 227.79 235.715 226.228 233.743 225.81L219.816 222.859C215.976 222.045 214.528 217.327 217.25 214.499L267.205 162.619C268.473 161.302 270.358 160.782 272.121 161.263L281.939 163.938C283.256 164.297 284.368 165.178 285.019 166.377L292.71 180.546C293.223 181.49 293.418 182.574 293.266 183.638L291.919 193.064C291.661 194.874 292.411 196.681 293.875 197.776L300.606 202.809Z" fill="#E31E25"/>
<path d="M368.923 258.064C367.18 258.525 365.323 258.012 364.064 256.721L320.544 212.1C319.061 210.581 318.701 208.29 319.644 206.388L329.518 186.472C329.836 185.831 330.287 185.266 330.841 184.815L351.937 167.643C353.956 166 356.898 166.18 358.701 168.058L410.431 221.938C411.997 223.57 412.273 226.051 411.103 227.987L398.546 248.77C397.875 249.88 396.799 250.685 395.546 251.017L368.923 258.064Z" fill="#E31E25"/>
<path d="M403.001 118.313C404.872 116.071 408.258 115.902 410.343 117.947L455.026 161.79C457.586 164.301 456.748 168.61 453.435 169.98L446.071 173.024C443.968 173.893 442.717 176.073 443.028 178.328L445.978 199.718C446.286 201.951 445.062 204.114 442.989 204.999L427.355 211.676C425.481 212.476 423.308 212.059 421.864 210.621L364.575 153.599C362.115 151.151 362.837 147.002 365.98 145.528L388.494 134.972C389.157 134.661 389.743 134.209 390.211 133.647L403.001 118.313Z" fill="#E31E25"/>
<path d="M260.879 353.914C259.691 357.687 254.801 358.652 252.269 355.615L218.351 314.929C216.684 312.93 216.83 309.986 218.686 308.161L226.281 300.698C227.071 299.921 227.581 298.905 227.731 297.807L230.231 279.473C230.404 278.206 231.055 277.053 232.052 276.252L242.056 268.209C244.126 266.544 247.138 266.79 248.911 268.768L302.997 329.082C305.026 331.344 304.585 334.877 302.062 336.571L292.264 343.151C291.44 343.704 290.47 344 289.477 344L267.668 344C265.485 344 263.554 345.416 262.899 347.499L260.879 353.914Z" fill="#E31E25"/>
<path d="M410.803 306.447C411.276 308.182 410.78 310.038 409.505 311.307L365.579 355.01C363.963 356.618 361.462 356.929 359.501 355.765L355.5 353.39C354.529 352.814 353.781 351.926 353.379 350.87L351.159 345.042C350.454 343.193 348.725 341.933 346.749 341.829L343.32 341.648C341.57 341.556 339.996 340.555 339.171 339.008L338.071 336.945C337.12 335.162 335.189 334.127 333.177 334.322L322.483 335.356C321.516 335.45 320.542 335.257 319.685 334.8V334.8C316.811 333.271 316.174 329.431 318.4 327.056L371.594 270.289C374.415 267.279 379.461 268.787 380.169 272.85L381.34 279.583C381.446 280.189 381.662 280.771 381.979 281.298L390.543 295.572C391.447 297.079 393.075 298 394.831 298L404.681 298C406.936 298 408.911 299.509 409.505 301.685L410.803 306.447Z" fill="#E31E25"/>
<path d="M204.015 467V462.07C205.998 462.07 207.727 461.277 209.2 459.69C210.73 458.047 212.005 455.865 213.025 453.145C214.102 450.425 214.98 447.365 215.66 443.965C216.397 440.565 216.963 437.052 217.36 433.425C217.757 429.798 218.04 426.313 218.21 422.97C218.323 420.703 218.267 419.003 218.04 417.87C217.813 416.68 217.218 415.887 216.255 415.49C215.292 415.037 213.733 414.697 211.58 414.47C211.41 413.847 211.268 413.053 211.155 412.09C211.042 411.127 210.985 410.192 210.985 409.285C212.968 409.398 215.745 409.483 219.315 409.54C222.885 409.54 227.503 409.54 233.17 409.54C237.59 409.54 241.188 409.54 243.965 409.54C246.742 409.483 248.98 409.455 250.68 409.455C252.437 409.398 253.853 409.342 254.93 409.285C254.93 410.248 254.902 411.155 254.845 412.005C254.788 412.855 254.618 413.677 254.335 414.47C252.862 414.583 251.7 414.895 250.85 415.405C250 415.858 249.405 416.68 249.065 417.87C248.782 419.003 248.64 420.675 248.64 422.885V453.655C248.64 456.035 248.782 457.848 249.065 459.095C249.405 460.285 249.972 461.078 250.765 461.475C251.615 461.872 252.805 462.07 254.335 462.07V467H204.015ZM215.32 461.9H228.325C230.535 461.9 232.178 461.702 233.255 461.305C234.332 460.908 235.04 460.115 235.38 458.925C235.777 457.678 235.975 455.865 235.975 453.485V422.885C235.975 420.845 235.89 419.258 235.72 418.125C235.607 416.935 235.125 416.057 234.275 415.49C233.935 415.207 233.368 414.98 232.575 414.81C231.838 414.583 230.96 414.47 229.94 414.47C228.637 414.47 227.617 414.583 226.88 414.81C226.143 414.98 225.605 415.235 225.265 415.575C224.585 416.142 224.188 417.048 224.075 418.295C223.962 419.542 223.848 421.072 223.735 422.885C223.508 427.192 223.197 431.328 222.8 435.295C222.403 439.205 221.865 442.888 221.185 446.345C220.562 449.745 219.768 452.777 218.805 455.44C217.898 458.103 216.737 460.257 215.32 461.9ZM201.805 481.365C201.805 478.532 201.72 475.868 201.55 473.375C201.38 470.882 201.125 468.7 200.785 466.83C200.785 464.903 201.267 463.317 202.23 462.07H208.69L211.58 464.365C211.013 467.142 210.588 470.003 210.305 472.95C210.078 475.897 209.965 478.702 209.965 481.365C208.718 481.762 207.33 481.96 205.8 481.96C204.27 481.96 202.938 481.762 201.805 481.365ZM250.765 481.365C250.822 478.702 250.708 475.897 250.425 472.95C250.198 470.003 249.802 467.142 249.235 464.365L252.04 462.07H258.585C259.548 463.317 260.03 464.903 260.03 466.83C259.69 468.7 259.407 470.882 259.18 473.375C259.01 475.868 258.953 478.532 259.01 481.365C257.933 481.762 256.602 481.96 255.015 481.96C253.485 481.96 252.068 481.762 250.765 481.365ZM266.901 467.255C266.901 466.235 266.929 465.272 266.986 464.365C267.099 463.458 267.269 462.693 267.496 462.07C269.026 461.957 270.188 461.673 270.981 461.22C271.831 460.71 272.426 459.832 272.766 458.585C273.106 457.338 273.276 455.497 273.276 453.06V422.885C273.276 420.675 273.106 419.003 272.766 417.87C272.483 416.68 271.944 415.858 271.151 415.405C270.358 414.952 269.168 414.64 267.581 414.47C267.354 413.847 267.184 413.11 267.071 412.26C267.014 411.353 266.986 410.362 266.986 409.285C268.913 409.342 271.179 409.398 273.786 409.455C276.393 409.512 278.943 409.54 281.436 409.54C283.079 409.54 284.751 409.54 286.451 409.54C288.151 409.483 289.766 409.455 291.296 409.455C292.826 409.398 294.073 409.342 295.036 409.285C295.036 410.192 294.979 411.127 294.866 412.09C294.809 412.997 294.668 413.79 294.441 414.47C292.344 414.583 290.673 414.952 289.426 415.575C288.179 416.198 287.273 417.19 286.706 418.55C286.196 419.91 285.941 421.808 285.941 424.245V453.485C285.941 455.752 286.168 457.508 286.621 458.755C287.074 460.002 287.726 460.852 288.576 461.305C289.483 461.758 290.559 461.985 291.806 461.985C294.469 461.985 296.509 461.078 297.926 459.265C299.399 457.395 300.136 454.817 300.136 451.53C300.136 449.207 299.824 447.28 299.201 445.75C298.634 444.22 297.869 443.002 296.906 442.095C295.943 441.188 294.838 440.537 293.591 440.14C292.401 439.743 291.183 439.545 289.936 439.545C289.426 439.545 288.689 439.573 287.726 439.63C286.819 439.687 285.913 439.772 285.006 439.885V434.53C286.139 434.36 287.244 434.247 288.321 434.19C289.398 434.077 290.644 434.02 292.061 434.02C296.651 434.02 300.533 434.558 303.706 435.635C306.936 436.712 309.401 438.44 311.101 440.82C312.801 443.2 313.651 446.317 313.651 450.17C313.651 453.457 312.886 456.375 311.356 458.925C309.826 461.475 307.418 463.458 304.131 464.875C300.901 466.292 296.708 467 291.551 467C288.491 467 285.771 467 283.391 467C281.011 467 278.858 467 276.931 467C275.061 467.057 273.304 467.085 271.661 467.085C270.074 467.142 268.488 467.198 266.901 467.255ZM320.961 422.885C320.961 420.675 320.819 419.003 320.536 417.87C320.253 416.68 319.686 415.858 318.836 415.405C318.043 414.952 316.853 414.64 315.266 414.47C315.096 413.847 314.954 413.053 314.841 412.09C314.728 411.127 314.671 410.192 314.671 409.285C315.691 409.342 316.938 409.398 318.411 409.455C319.941 409.455 321.528 409.483 323.171 409.54C324.814 409.54 326.259 409.54 327.506 409.54C328.866 409.54 330.283 409.54 331.756 409.54C333.229 409.483 334.674 409.455 336.091 409.455C337.564 409.398 338.868 409.342 340.001 409.285C340.001 410.248 339.973 411.155 339.916 412.005C339.859 412.855 339.661 413.677 339.321 414.47C337.848 414.583 336.686 414.895 335.836 415.405C334.986 415.858 334.419 416.68 334.136 417.87C333.853 419.003 333.711 420.675 333.711 422.885V453.57C333.711 455.78 333.853 457.508 334.136 458.755C334.476 459.945 335.043 460.767 335.836 461.22C336.686 461.673 337.876 461.957 339.406 462.07C339.576 462.637 339.718 463.402 339.831 464.365C339.944 465.328 340.001 466.292 340.001 467.255C338.528 467.142 336.743 467.057 334.646 467C332.549 467 330.339 467 328.016 467C325.693 467 323.313 467 320.876 467C318.496 467.057 316.428 467.142 314.671 467.255C314.671 466.348 314.728 465.413 314.841 464.45C314.954 463.487 315.124 462.693 315.351 462.07C316.881 461.957 318.043 461.673 318.836 461.22C319.686 460.767 320.253 459.945 320.536 458.755C320.819 457.508 320.961 455.78 320.961 453.57V422.885ZM379.725 467.765L359.58 422.885H361.195L358.56 448.895C358.22 452.408 358.163 455.1 358.39 456.97C358.616 458.783 359.183 460.058 360.09 460.795C360.996 461.475 362.243 461.9 363.83 462.07C364.056 462.807 364.198 463.657 364.255 464.62C364.311 465.527 364.34 466.405 364.34 467.255C363.263 467.142 361.846 467.057 360.09 467C358.333 467 356.69 467 355.16 467C354.14 467 353.006 467 351.76 467C350.513 467.057 349.323 467.085 348.19 467.085C347.056 467.142 346.15 467.198 345.47 467.255C345.47 466.405 345.498 465.527 345.555 464.62C345.668 463.657 345.838 462.807 346.065 462.07C347.538 461.9 348.728 461.475 349.635 460.795C350.541 460.058 351.278 458.755 351.845 456.885C352.411 455.015 352.836 452.295 353.12 448.725L355.415 423.48C355.641 421.043 355.613 419.202 355.33 417.955C355.103 416.652 354.536 415.745 353.63 415.235C352.78 414.725 351.561 414.47 349.975 414.47C349.691 413.677 349.521 412.855 349.465 412.005C349.408 411.155 349.38 410.248 349.38 409.285C350.116 409.342 351.051 409.398 352.185 409.455C353.318 409.455 354.48 409.483 355.67 409.54C356.86 409.54 357.851 409.54 358.645 409.54C359.495 409.54 360.515 409.54 361.705 409.54C362.895 409.483 364.028 409.455 365.105 409.455C366.238 409.398 367.145 409.342 367.825 409.285L387.375 454.08H384.825L401.74 409.285C402.59 409.342 403.61 409.398 404.8 409.455C405.99 409.455 407.151 409.483 408.285 409.54C409.475 409.54 410.495 409.54 411.345 409.54C412.138 409.54 413.073 409.54 414.15 409.54C415.283 409.483 416.416 409.455 417.55 409.455C418.683 409.398 419.646 409.342 420.44 409.285C420.44 410.192 420.383 411.098 420.27 412.005C420.213 412.912 420.071 413.733 419.845 414.47C417.521 414.47 415.906 415.122 415 416.425C414.15 417.672 413.895 420.108 414.235 423.735L416.955 450.85C417.238 453.91 417.606 456.233 418.06 457.82C418.513 459.35 419.136 460.398 419.93 460.965C420.78 461.475 421.913 461.815 423.33 461.985C423.556 462.722 423.698 463.543 423.755 464.45C423.811 465.357 423.84 466.292 423.84 467.255C423.216 467.198 422.338 467.142 421.205 467.085C420.128 467.085 418.91 467.057 417.55 467C416.19 467 414.858 467 413.555 467C412.308 467 411.231 467 410.325 467C409.135 467 407.775 467 406.245 467C404.715 467.057 403.241 467.085 401.825 467.085C400.465 467.142 399.36 467.198 398.51 467.255C398.51 466.292 398.566 465.385 398.68 464.535C398.793 463.685 398.963 462.863 399.19 462.07C400.946 461.843 402.221 461.475 403.015 460.965C403.865 460.398 404.346 459.435 404.46 458.075C404.573 456.658 404.488 454.562 404.205 451.785L401.145 422.885H402.505L384.74 467.085C384.116 467.312 383.323 467.482 382.36 467.595C381.453 467.708 380.575 467.765 379.725 467.765Z" fill="black"/>
<path d="M154.767 527.058L167.663 537.552L191.155 500.239L199.932 507.381L171.407 552.689L119.168 510.185L147.693 464.877L156.499 472.042L133.008 509.354L145.904 519.847L169.396 482.535L178.258 489.746L154.767 527.058Z" fill="black"/>
<path d="M224.723 574.107L224.58 560.482L206.313 553.601L199.191 564.49L187.745 560.178L220.149 515.134L233.137 520.027L236.169 578.419L224.723 574.107ZM224.651 550.369C224.454 537.997 224.346 531.002 224.326 529.382C224.33 527.772 224.36 526.509 224.418 525.595C222.808 528.317 218.534 534.935 211.594 545.451L224.651 550.369Z" fill="black"/>
<path d="M295.45 576.543L312.007 578.053L314.901 534.056L326.17 535.083L322.656 588.508L255.588 582.394L259.102 528.969L270.408 530L267.514 573.997L284.071 575.506L286.965 531.509L298.344 532.547L295.45 576.543Z" fill="black"/>
<path d="M390.521 576.427L379.541 579.164L370.43 536.023L357.709 539.194L358.155 544.137C359.264 556.709 359.769 565.598 359.672 570.802C359.592 575.976 358.699 579.832 356.99 582.37C355.306 584.902 352.592 586.635 348.849 587.567C346.859 588.063 345.051 588.237 343.424 588.09L341.501 578.989C342.976 579.124 344.318 579.041 345.526 578.74C346.782 578.427 347.655 577.606 348.148 576.276C348.635 574.923 348.868 572.602 348.847 569.313C348.844 565.995 348.621 560.631 348.179 553.224C347.755 545.786 347.249 538.784 346.66 532.217L379.458 524.043L390.521 576.427Z" fill="black"/>
<path d="M434.029 539.073C436.047 544.261 435.903 548.988 433.596 553.253C431.303 557.485 426.908 561.212 420.412 564.434L407.289 570.943L387.88 521.045L398.05 516.001L405.498 535.148L408.779 533.52C414.924 530.472 420.199 529.444 424.603 530.435C429.02 531.393 432.162 534.272 434.029 539.073ZM414.088 557.23L416.745 555.912C420.091 554.252 422.32 552.468 423.43 550.56C424.531 548.629 424.631 546.504 423.728 544.183C422.825 541.862 421.425 540.575 419.526 540.323C417.649 540.059 414.83 540.861 411.068 542.726L408.87 543.817L414.088 557.23ZM456.074 546.746L445.936 551.774L426.527 501.876L436.664 496.848L456.074 546.746Z" fill="black"/>
<path d="M510.109 506.45L500.797 515.363L470.519 507.055L486.775 528.783L478.573 536.633L446.501 493.762L454.702 485.913L470.234 506.674L468.566 472.644L477.296 464.288L478.595 498.37L510.109 506.45Z" fill="black"/>
</svg>
